<?xml version="1.0" encoding="utf-8"?>
<!-- Generator: Adobe Illustrator 17.1.0, SVG Export Plug-In . SVG Version: 6.00 Build 0)  -->
<!DOCTYPE svg PUBLIC "-//W3C//DTD SVG 1.1 Tiny//EN" "http://www.w3.org/Graphics/SVG/1.1/DTD/svg11-tiny.dtd">
<svg version="1.1" baseProfile="tiny" id="Layer_1" xmlns="http://www.w3.org/2000/svg" xmlns:xlink="http://www.w3.org/1999/xlink"
	 x="0px" y="0px" viewBox="0 0 480 192.207" xml:space="preserve">
<g>
	<g>
		<g>
			<path fill="#FFFFFF" d="M237.185,53.488l15.368,9.21l-15.368,9.21v-5.28l-9.191-3.937l9.191-3.924V53.488z"/>
		</g>
		<g>
			<path fill="#00DDFF" d="M211.82,0H2.047C0.916,0,0,0.916,0,2.047v128.934c0,1.131,0.916,2.047,2.047,2.047H62.42l-10.233,35.815
				h107.445L149.4,133.027h62.42c1.131,0,2.047-0.916,2.047-2.047V2.047C213.867,0.916,212.951,0,211.82,0z"/>
			<rect x="3.07" y="3.07" fill="#EEEEEE" width="207.727" height="126.887"/>
			<path fill="#7C4099" d="M12.279,85.956H65.49V40.931H36.838v-5.116c0-1.131-0.916-2.047-2.047-2.047H14.326
				c-1.131,0-2.047,0.916-2.047,2.047V85.956z"/>
			<g>
				<path fill="#EC1E24" d="M21.701,10.299c-0.489-0.413-0.88-0.476-1.532-0.476h-9.936l6.51,12.689
					c0.251,0.49,0.579,0.658,1.043,0.658h8.482c0.394,0,0.629-0.216,0.789-0.571l1.162-2.598l1.381-3.06L21.701,10.299z
					 M23.134,13.944c0.034-0.034,0.19-0.182,0.333-0.175c0.142,0.008,0.167,0.136,0.137,0.214c-0.045,0.12-0.15,0.219-0.229,0.274
					c-0.079,0.055-0.127,0.072-0.261,0.008C22.979,14.203,23.082,13.997,23.134,13.944z M22.877,15.234
					c0.038-0.36,0.267-0.401,0.354-0.401c0.087,0,0.151,0.06,0.132,0.273c-0.032,0.35-0.045,1.396-0.135,1.636
					c-0.063,0.17-0.451,0.25-0.488,0.137C22.69,16.731,22.839,15.594,22.877,15.234z M19.93,16.372
					c0.206-0.089,0.279-0.157,0.4-0.125c0.121,0.032,0.115,0.188,0.117,0.275c0.002,0.087-0.259,0.252-0.462,0.465
					c-0.204,0.212-0.146,0.912-0.155,1.203c-0.008,0.293-0.295,0.398-0.405,0.428c-0.111,0.03-0.176-0.024-0.18-0.182
					s0.051-1.263,0.074-1.532c0.024-0.269,0.21-0.479,0.4-0.496C19.909,16.39,19.93,16.372,19.93,16.372z M16.949,21.161
					c-0.191,0.031-0.274-0.13-0.301-0.28c-0.027-0.15-0.519-3.514-0.658-3.877c0,0-0.047-0.068-0.108,0.078
					c-0.062,0.145-0.342,0.84-0.379,0.928c-0.036,0.088-0.176,0.208-0.321,0.15c-0.145-0.057-0.171-0.155-0.145-0.232l0.78-2.312
					c0,0,0.054-0.121,0.253-0.121c0.199,0,0.236,0.135,0.266,0.215c0.03,0.08,0.558,3.091,0.544,3.137
					c-0.012,0.046,0.068,0.034,0.072,0c0.004-0.034,0.408-3.612,1.854-6.796c0,0,0.307-0.498,0.675-0.282
					c0.373,0.219,0.232,0.579,0.087,0.723c0,0-1.482,1.359-2.391,8.423C17.177,20.917,17.14,21.13,16.949,21.161z M18.829,16.148
					c-0.079,0.055-0.127,0.103-0.261,0.04c-0.135-0.063-0.033-0.322,0-0.356c0.033-0.035,0.269-0.246,0.411-0.237
					s0.117,0.223,0.087,0.301C19.023,16.015,18.908,16.093,18.829,16.148z M18.671,18.973c-0.063,0.17-0.48,0.298-0.518,0.185
					c-0.038-0.113,0.051-1.448,0.089-1.808c0.038-0.36,0.361-0.457,0.448-0.457s0.137,0.092,0.144,0.306
					C18.844,17.496,18.761,18.733,18.671,18.973z M26.218,16.175c-0.5,0.164-0.635,0.221-1.926,0.895s-2.103,1.332-2.103,1.332
					s0.011,2.311,0.075,2.728c0.062,0.417,0.194,1.029-0.24,1.064c-0.435,0.035-0.355-0.475-0.355-0.475v-2.94
					c-2.454,1.807-3.174,2.745-3.38,2.962c-0.206,0.217-0.28,0.183-0.475,0.097c-0.194-0.086-0.108-0.36-0.108-0.36
					c0.875-1.036,3.969-3.34,3.969-3.34s0-0.234,0-0.28c0-0.046-0.057,0.023-0.257,0.108c-0.201,0.086-0.389,0.143-0.601,0.046
					c-0.212-0.097-0.223-0.332-0.194-0.967s0.234-0.955,0.355-1.141c0.12-0.186,0.418-0.357,0.515-0.277
					c0.097,0.08,0.143,0.148-0.069,0.411c-0.212,0.263-0.229,0.537-0.274,0.995c-0.046,0.457,0.069,0.452,0.177,0.475
					c0.108,0.023,0.223-0.08,0.32-0.252s0.166-1.338,0.172-1.613c0.006-0.274,0.326-0.332,0.326-0.332
					c0.05-0.013,0.183,0.003,0.203,0.129c0.019,0.125-0.116,2.023-0.135,2.235c-0.019,0.212,0.039,0.135,0.039,0.135
					c0.607-0.401,2.831-1.666,2.87-1.714c0.039-0.048-0.077-0.029-0.106-0.191c-0.029-0.163-0.019-0.926-0.019-0.926
					c0.009-0.5-0.082-0.449-0.239-0.404c-0.408,0.118-0.406,0.972-0.426,1.415c-0.019,0.443-0.308,0.456-0.308,0.456
					c-0.231,0.082-0.26-0.09-0.26-0.158s0.019-0.963,0.068-1.406s0.308-0.5,0.52-0.5c0.212,0,0.212,0.029,0.472-0.212
					s0.598-0.308,0.684-0.116c0.087,0.192,0.029,1.416,0.029,1.416c-0.009,0.26,0.173,0.395,0.366,0.251
					c0.193-0.144,0.684-0.366,0.847-0.231C26.997,15.697,26.719,16.011,26.218,16.175z"/>
				<g>
					<path d="M32.858,16.972c-0.65,0-1.651,0.082-1.832,1.293l0.406,0.1h0.027c0.153-0.875,0.721-0.975,1.362-0.975
						c0.83,0,1.29,0.337,1.29,1.212v0.41h-1.335c-0.983,0-1.922,0.282-1.922,1.457c0,0.948,0.712,1.431,1.561,1.431
						c0.712,0,1.362-0.282,1.696-0.938h0.027v0.856h0.451v-3.244C34.59,17.373,33.76,16.972,32.858,16.972z M34.112,19.851
						c0,1.084-0.866,1.63-1.596,1.63c-0.704,0-1.154-0.373-1.154-1.02c0-0.866,0.622-1.048,1.461-1.048h1.29v0.438H34.112z
						 M40.182,16.96c-0.676,0-1.335,0.292-1.588,1.093c-0.153-0.692-0.69-1.173-1.475-1.173l-0.001,0.017
						c-0.891,0.009-1.769,0.413-1.769,1.601v3.324h0.478v-0.956v-0.984v-0.491V18.9v-0.375c0-0.874,0.529-1.199,1.359-1.199v-0.005
						c0.748,0.051,0.994,0.653,0.994,1.359v3.124h0.478v-2.86c0.018-0.729,0.379-1.567,1.435-1.567c0.875,0,1.155,0.574,1.155,1.303
						v3.124h0.478v-3.16C41.724,17.561,41.192,16.96,40.182,16.96z M47.122,18.658v3.161H47.6v-3.125
						c0-0.729,0.279-1.303,1.155-1.303c0.28,0,0.512,0.059,0.7,0.16l0.002-0.418c-0.244-0.112-0.517-0.161-0.793-0.161
						C47.654,16.972,47.122,17.573,47.122,18.658z M44.47,21.508c-1.055,0-1.651-0.693-1.632-2.005h3.645v-0.519
						c0-1.212-0.695-2.013-2.012-2.013c-1.254,0-2.138,0.893-2.138,2.487c0,1.731,0.911,2.469,2.129,2.469
						c1.038,0,1.93-0.556,2.038-1.567l-0.433-0.073C45.941,21.172,45.237,21.508,44.47,21.508z M44.479,17.392
						c1.019,0,1.515,0.656,1.515,1.485v0.21h-3.148C42.91,18.029,43.533,17.392,44.479,17.392z M50.005,21.757h0.478V17.02h-0.478
						V21.757z M53.503,21.508c-1.083,0-1.687-0.838-1.687-2.068c0-1.239,0.577-2.05,1.687-2.05c0.856,0,1.435,0.528,1.435,1.284
						l0.469-0.046c0.009-1.093-0.848-1.658-1.913-1.658c-1.317,0-2.183,0.883-2.183,2.459s0.875,2.496,2.192,2.496
						c1.064,0,1.867-0.511,1.967-1.695l-0.469-0.037C54.928,20.971,54.414,21.508,53.503,21.508z M58.004,16.972
						c-0.65,0-1.651,0.082-1.832,1.293l0.405,0.1h0.028c0.153-0.875,0.721-0.975,1.362-0.975c0.83,0,1.29,0.337,1.29,1.212v0.41
						h-1.335c-0.983,0-1.922,0.282-1.922,1.457c0,0.948,0.712,1.431,1.561,1.431c0.713,0,1.362-0.282,1.697-0.938h0.027v0.856h0.451
						v-3.244C59.736,17.373,58.905,16.972,58.004,16.972z M59.257,19.851c0,1.084-0.866,1.63-1.596,1.63
						c-0.704,0-1.154-0.373-1.154-1.02c0-0.866,0.622-1.048,1.461-1.048h1.29v0.438H59.257z"/>
				</g>
			</g>
			<g>
				<path fill="#E577FF" d="M19.917,58.5h3.898c0.959,0,1.715,0.264,2.195,0.744c0.384,0.384,0.576,0.852,0.576,1.427v0.024
					c0,0.948-0.504,1.475-1.104,1.811c0.972,0.372,1.571,0.936,1.571,2.063v0.024c0,1.535-1.248,2.303-3.142,2.303h-3.994V58.5z
					 M24.75,60.983c0-0.552-0.432-0.864-1.211-0.864h-1.823v1.775h1.703c0.815,0,1.331-0.264,1.331-0.887V60.983z M23.851,63.429
					h-2.135v1.847h2.195c0.815,0,1.307-0.288,1.307-0.912v-0.024C25.218,63.777,24.798,63.429,23.851,63.429z"/>
				<path fill="#E577FF" d="M28.209,62.721v-0.024c0-2.387,1.883-4.341,4.474-4.341c2.59,0,4.449,1.931,4.449,4.317v0.024
					c0,2.387-1.883,4.342-4.474,4.342C30.068,67.039,28.209,65.108,28.209,62.721z M35.201,62.721v-0.024
					c0-1.439-1.056-2.639-2.543-2.639c-1.487,0-2.519,1.175-2.519,2.615v0.024c0,1.439,1.056,2.639,2.543,2.639
					C34.17,65.336,35.201,64.161,35.201,62.721z"/>
				<path fill="#E577FF" d="M38.409,62.721v-0.024c0-2.387,1.883-4.341,4.474-4.341c2.59,0,4.45,1.931,4.45,4.317v0.024
					c0,2.387-1.883,4.342-4.474,4.342C40.268,67.039,38.409,65.108,38.409,62.721z M45.401,62.721v-0.024
					c0-1.439-1.056-2.639-2.542-2.639c-1.487,0-2.519,1.175-2.519,2.615v0.024c0,1.439,1.056,2.639,2.543,2.639
					C44.369,65.336,45.401,64.161,45.401,62.721z"/>
				<path fill="#E577FF" d="M48.981,58.5h1.847v3.67l3.406-3.67h2.23l-3.418,3.562l3.574,4.833h-2.219l-2.603-3.574l-0.972,1.008
					v2.566h-1.847V58.5z"/>
			</g>
		</g>
		<g>
			<path fill="#00DDFF" d="M477.953,0H268.18c-1.131,0-2.047,0.916-2.047,2.047v128.934c0,1.131,0.916,2.047,2.047,2.047h60.374
				l-10.233,35.815h107.445l-10.233-35.815h62.42c1.131,0,2.047-0.916,2.047-2.047V2.047C480,0.916,479.084,0,477.953,0z"/>
			<rect x="269.164" y="3.07" fill="#EEEEEE" width="207.727" height="126.887"/>
			<g>
				<path fill="#EC1E24" d="M287.795,10.299c-0.489-0.413-0.88-0.477-1.532-0.477h-9.936l6.51,12.69
					c0.251,0.49,0.579,0.658,1.043,0.658h8.482c0.394,0,0.629-0.216,0.789-0.571l1.162-2.598l1.381-3.06L287.795,10.299z
					 M289.228,13.944c0.034-0.034,0.19-0.182,0.333-0.175c0.142,0.008,0.167,0.136,0.137,0.214c-0.045,0.12-0.15,0.219-0.229,0.274
					c-0.079,0.055-0.127,0.072-0.261,0.008C289.073,14.203,289.176,13.997,289.228,13.944z M288.97,15.234
					c0.038-0.36,0.267-0.401,0.354-0.401c0.087,0,0.151,0.06,0.132,0.273c-0.032,0.35-0.045,1.396-0.135,1.636
					c-0.063,0.17-0.451,0.25-0.488,0.137C288.784,16.731,288.933,15.594,288.97,15.234z M286.023,16.372
					c0.206-0.089,0.279-0.157,0.4-0.125c0.121,0.032,0.115,0.188,0.117,0.275c0.002,0.087-0.259,0.252-0.463,0.465
					c-0.204,0.212-0.146,0.912-0.155,1.203c-0.008,0.293-0.295,0.398-0.405,0.428c-0.111,0.03-0.176-0.024-0.18-0.182
					s0.051-1.263,0.074-1.532c0.024-0.269,0.21-0.479,0.4-0.496C286.003,16.39,286.023,16.372,286.023,16.372z M283.042,21.161
					c-0.191,0.031-0.274-0.13-0.301-0.28c-0.027-0.15-0.519-3.514-0.658-3.877c0,0-0.047-0.068-0.108,0.078
					c-0.062,0.145-0.342,0.84-0.379,0.928c-0.036,0.088-0.176,0.208-0.321,0.15c-0.145-0.057-0.171-0.155-0.145-0.232l0.78-2.312
					c0,0,0.054-0.121,0.253-0.121s0.236,0.135,0.266,0.215c0.03,0.08,0.558,3.091,0.544,3.137c-0.012,0.046,0.068,0.034,0.072,0
					s0.408-3.612,1.854-6.796c0,0,0.307-0.498,0.675-0.282c0.373,0.219,0.232,0.579,0.087,0.723c0,0-1.482,1.359-2.391,8.423
					C283.271,20.917,283.234,21.13,283.042,21.161z M284.923,16.148c-0.079,0.055-0.127,0.103-0.261,0.04
					c-0.135-0.063-0.033-0.322,0-0.356c0.033-0.035,0.269-0.246,0.411-0.237c0.142,0.008,0.117,0.223,0.087,0.301
					C285.117,16.015,285.002,16.093,284.923,16.148z M284.765,18.973c-0.063,0.17-0.48,0.298-0.518,0.185
					c-0.038-0.113,0.051-1.448,0.089-1.808c0.038-0.36,0.361-0.457,0.448-0.457c0.087,0,0.137,0.092,0.144,0.306
					C284.938,17.496,284.855,18.733,284.765,18.973z M292.311,16.175c-0.5,0.164-0.635,0.221-1.926,0.895
					c-1.29,0.674-2.103,1.332-2.103,1.332s0.011,2.311,0.075,2.728c0.062,0.417,0.194,1.029-0.24,1.064
					c-0.435,0.035-0.355-0.475-0.355-0.475v-2.94c-2.454,1.807-3.174,2.745-3.38,2.962c-0.206,0.217-0.28,0.183-0.475,0.097
					c-0.194-0.086-0.108-0.36-0.108-0.36c0.875-1.036,3.969-3.34,3.969-3.34s0-0.234,0-0.28c0-0.046-0.057,0.023-0.258,0.108
					c-0.201,0.086-0.389,0.143-0.601,0.046s-0.223-0.332-0.194-0.967c0.029-0.634,0.234-0.955,0.354-1.141
					c0.12-0.186,0.418-0.357,0.515-0.277c0.097,0.08,0.143,0.148-0.069,0.411c-0.212,0.263-0.229,0.537-0.274,0.995
					c-0.046,0.457,0.069,0.452,0.177,0.475c0.108,0.023,0.223-0.08,0.32-0.252c0.097-0.172,0.166-1.338,0.172-1.613
					c0.006-0.274,0.326-0.332,0.326-0.332c0.05-0.013,0.183,0.003,0.203,0.129c0.019,0.125-0.116,2.023-0.135,2.235
					c-0.019,0.212,0.039,0.135,0.039,0.135c0.607-0.401,2.831-1.666,2.87-1.714s-0.077-0.029-0.106-0.191
					c-0.029-0.163-0.019-0.926-0.019-0.926c0.009-0.5-0.082-0.449-0.239-0.404c-0.408,0.118-0.406,0.972-0.425,1.415
					c-0.019,0.443-0.308,0.456-0.308,0.456c-0.231,0.082-0.26-0.09-0.26-0.158s0.019-0.963,0.068-1.406
					c0.048-0.443,0.308-0.5,0.52-0.5s0.212,0.029,0.472-0.212s0.598-0.308,0.684-0.116c0.087,0.192,0.029,1.416,0.029,1.416
					c-0.009,0.26,0.173,0.395,0.366,0.251c0.192-0.144,0.684-0.366,0.847-0.231C293.091,15.697,292.813,16.011,292.311,16.175z"/>
				<g>
					<path d="M298.952,16.972c-0.65,0-1.651,0.082-1.832,1.293l0.406,0.1h0.027c0.153-0.875,0.721-0.975,1.362-0.975
						c0.83,0,1.29,0.337,1.29,1.212v0.41h-1.335c-0.983,0-1.922,0.282-1.922,1.457c0,0.948,0.712,1.431,1.56,1.431
						c0.712,0,1.362-0.282,1.696-0.938h0.027v0.856h0.451v-3.244C300.684,17.373,299.854,16.972,298.952,16.972z M300.206,19.851
						c0,1.084-0.866,1.63-1.596,1.63c-0.704,0-1.154-0.373-1.154-1.02c0-0.866,0.622-1.048,1.461-1.048h1.29v0.438H300.206z
						 M306.276,16.96c-0.676,0-1.335,0.292-1.588,1.093c-0.153-0.692-0.69-1.173-1.475-1.173l-0.001,0.017
						c-0.891,0.009-1.769,0.413-1.769,1.601v3.324h0.478v-3.296c0-0.874,0.529-1.199,1.359-1.199v-0.005
						c0.748,0.051,0.994,0.653,0.994,1.359v3.124h0.478v-2.86c0.018-0.729,0.379-1.567,1.435-1.567c0.875,0,1.155,0.574,1.155,1.303
						v3.124h0.478v-3.161C307.818,17.561,307.286,16.96,306.276,16.96z M313.216,18.658v3.161h0.478v-3.125
						c0-0.729,0.279-1.303,1.155-1.303c0.28,0,0.512,0.059,0.7,0.16l0.002-0.418c-0.244-0.112-0.517-0.161-0.793-0.161
						C313.748,16.972,313.216,17.573,313.216,18.658z M310.564,21.508c-1.055,0-1.651-0.693-1.632-2.005h3.645v-0.519
						c0-1.212-0.695-2.013-2.012-2.013c-1.254,0-2.138,0.893-2.138,2.487c0,1.731,0.911,2.469,2.129,2.469
						c1.038,0,1.93-0.556,2.038-1.567l-0.433-0.073C312.035,21.172,311.331,21.508,310.564,21.508z M310.573,17.392
						c1.019,0,1.515,0.656,1.515,1.485v0.21h-3.148C309.004,18.029,309.626,17.392,310.573,17.392z M316.099,21.757h0.478V17.02
						h-0.478V21.757z M319.596,21.508c-1.083,0-1.687-0.838-1.687-2.068c0-1.239,0.577-2.05,1.687-2.05
						c0.857,0,1.435,0.528,1.435,1.284l0.469-0.046c0.009-1.093-0.848-1.658-1.913-1.658c-1.317,0-2.183,0.883-2.183,2.459
						s0.875,2.496,2.192,2.496c1.064,0,1.868-0.511,1.967-1.695l-0.469-0.037C321.022,20.971,320.508,21.508,319.596,21.508z
						 M324.098,16.972c-0.65,0-1.651,0.082-1.832,1.293l0.405,0.1h0.028c0.153-0.875,0.721-0.975,1.362-0.975
						c0.83,0,1.29,0.337,1.29,1.212v0.41h-1.335c-0.983,0-1.922,0.282-1.922,1.457c0,0.948,0.712,1.431,1.56,1.431
						c0.713,0,1.362-0.282,1.697-0.938h0.027v0.856h0.451v-3.244C325.83,17.373,324.999,16.972,324.098,16.972z M325.351,19.851
						c0,1.084-0.866,1.63-1.596,1.63c-0.704,0-1.154-0.373-1.154-1.02c0-0.866,0.622-1.048,1.461-1.048h1.29v0.438H325.351z"/>
				</g>
			</g>
			<rect x="269.164" y="34.792" fill="#7C4099" width="207.727" height="95.166"/>
			<g>
				<path fill="#E577FF" d="M354.675,78.177h3.898c0.959,0,1.715,0.264,2.195,0.744c0.384,0.384,0.576,0.852,0.576,1.427v0.024
					c0,0.948-0.504,1.475-1.104,1.811c0.972,0.372,1.571,0.936,1.571,2.063v0.024c0,1.535-1.248,2.303-3.142,2.303h-3.994V78.177z
					 M359.509,80.659c0-0.552-0.432-0.864-1.211-0.864h-1.823v1.775h1.703c0.815,0,1.331-0.264,1.331-0.887V80.659z M358.609,83.106
					h-2.135v1.847h2.195c0.815,0,1.307-0.288,1.307-0.912v-0.024C359.977,83.454,359.557,83.106,358.609,83.106z"/>
				<path fill="#E577FF" d="M362.968,82.398v-0.024c0-2.387,1.883-4.341,4.474-4.341c2.59,0,4.449,1.931,4.449,4.317v0.024
					c0,2.387-1.883,4.342-4.474,4.342C364.827,86.716,362.968,84.785,362.968,82.398z M369.96,82.398v-0.024
					c0-1.439-1.056-2.639-2.543-2.639c-1.487,0-2.519,1.175-2.519,2.615v0.024c0,1.439,1.056,2.639,2.543,2.639
					C368.928,85.013,369.96,83.838,369.96,82.398z"/>
				<path fill="#E577FF" d="M373.168,82.398v-0.024c0-2.387,1.883-4.341,4.474-4.341c2.59,0,4.45,1.931,4.45,4.317v0.024
					c0,2.387-1.883,4.342-4.474,4.342C375.026,86.716,373.168,84.785,373.168,82.398z M380.16,82.398v-0.024
					c0-1.439-1.056-2.639-2.542-2.639c-1.487,0-2.519,1.175-2.519,2.615v0.024c0,1.439,1.056,2.639,2.543,2.639
					C379.128,85.013,380.16,83.838,380.16,82.398z"/>
				<path fill="#E577FF" d="M383.739,78.177h1.847v3.67l3.406-3.67h2.23l-3.418,3.562l3.574,4.833h-2.219l-2.603-3.574l-0.972,1.008
					v2.566h-1.847V78.177z"/>
			</g>
		</g>
	</g>
	<g>
		<path fill="#FFFFFF" d="M72.945,186.514c0-2.554,1.237-4.364,3.685-5.694l0.891,1.343c-1.796,1.251-2.567,2.474-2.567,4.351
			c0,1.875,0.772,3.099,2.567,4.349l-0.891,1.344C74.182,190.877,72.945,189.068,72.945,186.514z"/>
		<path fill="#FFFFFF" d="M79.196,181.018h4.324c1.064,0,1.902,0.293,2.434,0.825c0.426,0.426,0.639,0.946,0.639,1.584v0.027
			c0,1.05-0.559,1.636-1.224,2.009c1.078,0.411,1.743,1.038,1.743,2.288v0.026c0,1.703-1.383,2.554-3.485,2.554h-4.431V181.018z
			 M84.557,183.773c0-0.613-0.479-0.959-1.344-0.959h-2.022v1.969h1.889c0.905,0,1.477-0.292,1.477-0.983V183.773z M83.561,186.486
			h-2.369v2.05h2.434c0.905,0,1.45-0.319,1.45-1.011v-0.027C85.077,186.873,84.611,186.486,83.561,186.486z"/>
		<path fill="#FFFFFF" d="M88.802,181.018h7.024v1.822h-4.989v1.89h4.39v1.821h-4.39v1.956h5.055v1.823h-7.09V181.018z"/>
		<path fill="#FFFFFF" d="M97.715,181.018h7.09v1.862h-5.042v1.982h4.443v1.862h-4.443v3.606h-2.049V181.018z"/>
		<path fill="#FFFFFF" d="M106.028,185.702v-0.027c0-2.646,2.089-4.815,4.962-4.815c2.873,0,4.935,2.142,4.935,4.789v0.026
			c0,2.648-2.089,4.817-4.962,4.817C108.09,190.492,106.028,188.348,106.028,185.702z M113.784,185.702v-0.027
			c0-1.596-1.172-2.926-2.82-2.926s-2.794,1.303-2.794,2.9v0.026c0,1.597,1.171,2.928,2.82,2.928
			C112.64,188.603,113.784,187.298,113.784,185.702z"/>
		<path fill="#FFFFFF" d="M117.747,181.018h4.257c1.184,0,2.102,0.333,2.714,0.945c0.519,0.52,0.798,1.251,0.798,2.128v0.027
			c0,1.504-0.811,2.448-1.995,2.887l2.275,3.326h-2.394l-1.995-2.98h-1.61v2.981h-2.049
			C117.747,190.331,117.747,181.018,117.747,181.018z M121.871,185.542c0.998,0,1.57-0.533,1.57-1.317v-0.027
			c0-0.878-0.612-1.33-1.61-1.33h-2.035v2.674H121.871z"/>
		<path fill="#FFFFFF" d="M127.365,181.018h7.024v1.822h-4.989v1.89h4.39v1.821h-4.39v1.956h5.055v1.823h-7.09
			C127.365,190.331,127.365,181.018,127.365,181.018z"/>
		<path fill="#FFFFFF" d="M135.719,190.863c1.796-1.25,2.567-2.474,2.567-4.349c0-1.877-0.772-3.1-2.567-4.351l0.891-1.343
			c2.448,1.33,3.685,3.139,3.685,5.694s-1.237,4.363-3.685,5.693L135.719,190.863z"/>
	</g>
	<g>
		<path fill="#FFFFFF" d="M344.346,186.514c0-2.554,1.237-4.364,3.686-5.694l0.891,1.343c-1.796,1.251-2.568,2.474-2.568,4.351
			c0,1.875,0.773,3.099,2.568,4.349l-0.891,1.344C345.583,190.877,344.346,189.068,344.346,186.514z"/>
		<path fill="#FFFFFF" d="M353.792,180.952h1.889l3.991,9.379h-2.143l-0.851-2.089h-3.938l-0.85,2.089h-2.089L353.792,180.952z
			 M355.946,186.434l-1.237-3.02l-1.237,3.02H355.946z"/>
		<path fill="#FFFFFF" d="M361.107,181.018h7.091v1.862h-5.042v1.982h4.443v1.862h-4.443v3.606h-2.05V181.018z"/>
		<path fill="#FFFFFF" d="M372.003,182.908h-2.834v-1.89h7.717v1.89h-2.835v7.423h-2.049v-7.423H372.003z"/>
		<path fill="#FFFFFF" d="M378.454,181.018h7.024v1.822h-4.989v1.89h4.39v1.821h-4.39v1.956h5.055v1.823h-7.091v-9.313H378.454z"/>
		<path fill="#FFFFFF" d="M387.367,181.018h4.257c1.184,0,2.102,0.333,2.714,0.945c0.519,0.52,0.798,1.251,0.798,2.128v0.027
			c0,1.504-0.811,2.448-1.995,2.887l2.276,3.326h-2.396l-1.995-2.98h-1.609v2.981h-2.05V181.018z M391.492,185.542
			c0.998,0,1.57-0.533,1.57-1.317v-0.027c0-0.878-0.613-1.33-1.61-1.33h-2.034v2.674H391.492z"/>
		<path fill="#FFFFFF" d="M396.426,190.863c1.797-1.25,2.568-2.474,2.568-4.349c0-1.877-0.772-3.1-2.568-4.351l0.891-1.343
			c2.449,1.33,3.686,3.139,3.686,5.694s-1.237,4.363-3.686,5.693L396.426,190.863z"/>
	</g>
</g>
</svg>
