<?xml version="1.0" encoding="utf-8"?>
<!-- Generator: Adobe Illustrator 17.1.0, SVG Export Plug-In . SVG Version: 6.00 Build 0)  -->
<!DOCTYPE svg PUBLIC "-//W3C//DTD SVG 1.1 Tiny//EN" "http://www.w3.org/Graphics/SVG/1.1/DTD/svg11-tiny.dtd">
<svg version="1.1" baseProfile="tiny" id="Layer_1" xmlns="http://www.w3.org/2000/svg" xmlns:xlink="http://www.w3.org/1999/xlink"
	 x="0px" y="0px" viewBox="0 0 200 200" xml:space="preserve">
<g>
	<g>
		<path fill="#0089FF" d="M3.724,100c0,53.172,43.106,96.276,96.277,96.276c53.172,0,96.275-43.104,96.275-96.276
			c0-53.174-43.103-96.277-96.275-96.277C46.83,3.724,3.724,46.827,3.724,100"/>
		<path fill="#00DDFF" d="M100.001,0C44.773,0,0,44.77,0,100c0,55.228,44.773,100,100.001,100C155.23,200,200,155.229,200,100
			C200,44.77,155.23,0,100.001,0z M100.001,3.724c53.172,0,96.275,43.103,96.275,96.277c0,21.85-7.283,41.996-19.548,58.154
			l5.356-48.617c5.091-45.314-27.519-86.175-72.835-91.265c-45.316-5.09-86.181,27.521-91.269,72.835l-5.422,49.218
			C6.891,128.057,3.724,114.4,3.724,100C3.724,46.827,46.83,3.724,100.001,3.724z"/>
		<path fill="#FF342B" d="M113.096,133.029c-2.158,7.911,2.507,16.076,10.42,18.232c7.913,2.16,16.074-2.507,18.232-10.418
			c2.156-7.913-2.509-16.076-10.422-18.234C123.418,120.451,115.252,125.118,113.096,133.029"/>
		<path fill="#1D1D1B" d="M122.212,135.517c-0.784,2.876,0.911,5.845,3.787,6.631c2.88,0.786,5.851-0.915,6.635-3.791
			c0.784-2.88-0.911-5.849-3.789-6.631C125.963,130.94,122.994,132.637,122.212,135.517"/>
		<path fill="#00C6FF" d="M152.947,131.72c9.852,2.686,20.013-3.123,22.699-12.971l3.101-11.366c0,0-10.544-9.824-16.072-11.335
			c-5.53-1.508-19.592,1.611-19.592,1.611l-3.101,11.367C137.294,118.873,143.099,129.034,152.947,131.72"/>
		<path fill="#1D1D1B" d="M178.747,107.381c2.686-9.85-3.123-20.011-12.973-22.699c-9.848-2.688-20.009,3.123-22.691,12.975
			c-2.688,9.848,3.115,20.009,12.965,22.695C165.9,123.04,176.06,117.232,178.747,107.381"/>
		<path fill="#00C6FF" d="M107.355,119.29c9.852,2.686,20.013-3.123,22.699-12.971l3.101-11.366c0,0-10.544-9.824-16.072-11.334
			c-5.53-1.508-19.592,1.611-19.592,1.611L94.39,96.595C91.702,106.443,97.507,116.604,107.355,119.29"/>
		<path fill="#1D1D1B" d="M133.156,94.951c2.686-9.85-3.123-20.011-12.973-22.699c-9.848-2.688-20.009,3.123-22.691,12.975
			c-2.688,9.848,3.115,20.009,12.965,22.695C120.309,110.61,130.468,104.802,133.156,94.951"/>
		<path fill="#8E8E8D" d="M124.11,101.387l-3.843-4.94c-0.834,0.992-1.795,1.859-2.852,2.581v0.003l1.173,5.011h0.001
			C120.607,103.569,122.482,102.651,124.11,101.387L124.11,101.387z"/>
		<path fill="#8E8E8D" d="M121.153,95.278l4.86,4.331c1.428-1.603,2.529-3.538,3.133-5.751c0.343-1.26,0.491-2.525,0.491-3.771
			h-6.33c-0.062,0.309-0.094,0.616-0.178,0.925C122.702,92.581,122.016,94.007,121.153,95.278z"/>
		<path fill="#8E8E8D" d="M163.007,111.46l1.173,5.014c2.018-0.473,3.893-1.392,5.522-2.656l-3.843-4.94
			C165.025,109.871,164.064,110.737,163.007,111.46z"/>
		<path fill="#8E8E8D" d="M166.745,107.71l4.86,4.33c1.428-1.603,2.529-3.538,3.133-5.751c0.315-1.156,0.466-2.318,0.488-3.464
			v-0.306h-6.327c-0.062,0.309-0.094,0.616-0.178,0.925C168.293,105.012,167.607,106.438,166.745,107.71z"/>
	</g>
	<path fill="#FFFFFF" d="M98.788,42.097c0.826,28.838-20.257,21.284-23.651,29.041c-7.69,17.578-18.792,28.688-38.412,11.63
		C24.967,72.547,35.441,56.214,54.354,40.68C74.342,24.262,98.345,26.631,98.788,42.097z"/>
</g>
</svg>
