<?xml version="1.0" encoding="utf-8"?>
<!-- Generator: Adobe Illustrator 17.1.0, SVG Export Plug-In . SVG Version: 6.00 Build 0)  -->
<!DOCTYPE svg PUBLIC "-//W3C//DTD SVG 1.1 Tiny//EN" "http://www.w3.org/Graphics/SVG/1.1/DTD/svg11-tiny.dtd">
<svg version="1.1" baseProfile="tiny" id="Layer_1" xmlns="http://www.w3.org/2000/svg" xmlns:xlink="http://www.w3.org/1999/xlink"
	 x="0px" y="0px" viewBox="0 0 200 200" xml:space="preserve">
<path fill="#7B4397" d="M181.888,106.407L200,95.823l-1.519-13.689l-19.99-6.352c-1.191-3.869-2.653-7.603-4.364-11.187
	l10.39-18.216l-8.159-11.093l-20.515,4.503c-2.933-2.719-6.053-5.223-9.348-7.487l-0.109-20.993L133.77,5.78l-15.493,14.135
	c-3.871-0.885-7.836-1.494-11.87-1.805L95.823,0L82.136,1.521l-6.352,19.99c-3.868,1.188-7.601,2.654-11.185,4.365L46.383,15.487
	l-11.095,8.159l4.5,20.508c-2.717,2.929-5.212,6.06-7.477,9.355l-21.001,0.106L5.783,66.23l14.129,15.492
	c-0.884,3.871-1.489,7.839-1.803,11.874L0,104.177l1.519,13.687l19.99,6.354c1.188,3.866,2.653,7.603,4.366,11.184l-10.39,18.216
	l8.162,11.093l20.505-4.498c2.933,2.719,6.062,5.221,9.357,7.487l0.109,20.99l12.613,5.527l15.493-14.132
	c3.871,0.885,7.836,1.492,11.87,1.803L104.177,200l13.687-1.521l6.352-19.987c3.868-1.191,7.603-2.654,11.187-4.368l18.214,10.391
	l11.095-8.159l-4.5-20.506c2.717-2.931,5.219-6.057,7.484-9.35l20.996-0.111l5.528-12.614l-14.134-15.492
	C180.967,114.402,181.577,110.437,181.888,106.407z M141.575,105.043c-2.073,0.268-4.473,0.521-7.209,0.759
	c-0.19,1.133-0.437,2.244-0.734,3.343c2.381,1.367,4.456,2.606,6.225,3.715c-0.68,2.107-1.526,4.144-2.522,6.096
	c-2.039-0.456-4.383-1.039-7.037-1.752c-0.564,0.993-1.176,1.955-1.834,2.885c1.771,2.099,3.297,3.968,4.58,5.616
	c-1.351,1.738-2.836,3.372-4.447,4.876c-1.759-1.126-3.761-2.48-6.009-4.052c-0.867,0.74-1.769,1.439-2.709,2.092
	c0.948,2.574,1.742,4.859,2.384,6.846c-1.852,1.167-3.805,2.191-5.846,3.056c-1.268-1.661-2.687-3.618-4.264-5.869
	c-1.062,0.4-2.15,0.742-3.263,1.034c0.01,2.746-0.027,5.161-0.102,7.248c-1.363,0.292-2.753,0.516-4.167,0.677
	c-0.795,0.087-1.584,0.149-2.374,0.19c-0.622-1.991-1.288-4.315-1.997-6.964c-1.152,0.007-2.291-0.036-3.421-0.14
	c-0.931,2.586-1.788,4.84-2.576,6.776c-2.202-0.304-4.352-0.781-6.442-1.415c0.097-2.087,0.265-4.498,0.505-7.231
	c-1.079-0.386-2.133-0.822-3.164-1.309c-1.757,2.112-3.336,3.934-4.738,5.486c-1.949-1.036-3.81-2.22-5.569-3.541
	c0.804-1.926,1.788-4.134,2.947-6.622c-0.88-0.723-1.723-1.492-2.525-2.302c-2.374,1.381-4.481,2.555-6.33,3.531
	c-1.473-1.625-2.821-3.37-4.031-5.221c1.417-1.538,3.093-3.276,5.035-5.216c-0.576-0.979-1.105-1.993-1.587-3.035
	c-2.702,0.487-5.088,0.87-7.158,1.157c-0.819-2.015-1.482-4.117-1.985-6.289c1.856-0.962,4.029-2.02,6.517-3.179
	c-0.148-0.807-0.27-1.622-0.362-2.449c-0.034-0.311-0.063-0.629-0.09-0.94c-2.707-0.465-5.078-0.921-7.122-1.36
	c-0.085-2.23,0.007-4.433,0.27-6.59c2.073-0.265,4.473-0.518,7.209-0.757c0.192-1.135,0.437-2.249,0.736-3.343
	c-2.384-1.367-4.456-2.603-6.228-3.715c0.68-2.107,1.526-4.141,2.522-6.098c2.039,0.46,4.383,1.044,7.037,1.752
	c0.564-0.986,1.176-1.952,1.834-2.883c-1.771-2.097-3.297-3.97-4.58-5.621c1.351-1.736,2.836-3.367,4.444-4.872
	c1.759,1.123,3.761,2.473,6.011,4.05c0.867-0.74,1.771-1.437,2.709-2.092c-0.948-2.577-1.742-4.859-2.384-6.848
	c1.851-1.164,3.805-2.184,5.846-3.054c1.268,1.661,2.687,3.616,4.264,5.867c1.062-0.395,2.15-0.738,3.263-1.032
	c-0.01-2.746,0.024-5.158,0.102-7.248c1.363-0.292,2.753-0.521,4.167-0.675c0.794-0.087,1.587-0.152,2.374-0.193
	c0.622,1.991,1.288,4.312,1.997,6.964c1.152-0.01,2.291,0.036,3.421,0.137c0.931-2.582,1.788-4.84,2.578-6.778
	c2.199,0.306,4.352,0.781,6.442,1.417c-0.097,2.09-0.265,4.5-0.505,7.236c1.079,0.383,2.133,0.82,3.164,1.304
	c1.757-2.107,3.336-3.931,4.738-5.484c1.949,1.032,3.81,2.22,5.569,3.541c-0.807,1.926-1.788,4.136-2.947,6.619
	c0.88,0.73,1.72,1.497,2.527,2.307c2.374-1.381,4.481-2.558,6.33-3.534c1.473,1.627,2.821,3.37,4.029,5.221
	c-1.417,1.543-3.093,3.276-5.035,5.219c0.576,0.979,1.106,1.991,1.587,3.035c2.702-0.487,5.088-0.873,7.158-1.159
	c0.819,2.018,1.485,4.119,1.985,6.291c-1.856,0.959-4.029,2.018-6.517,3.177c0.148,0.81,0.27,1.627,0.362,2.451
	c0.034,0.313,0.063,0.629,0.092,0.938c2.704,0.472,5.076,0.921,7.122,1.364C141.927,100.682,141.835,102.883,141.575,105.043z"/>
</svg>
