<?xml version="1.0" encoding="utf-8"?>
<!-- Generator: Adobe Illustrator 17.1.0, SVG Export Plug-In . SVG Version: 6.00 Build 0)  -->
<!DOCTYPE svg PUBLIC "-//W3C//DTD SVG 1.1 Tiny//EN" "http://www.w3.org/Graphics/SVG/1.1/DTD/svg11-tiny.dtd">
<svg version="1.1" baseProfile="tiny" id="Layer_1" xmlns="http://www.w3.org/2000/svg" xmlns:xlink="http://www.w3.org/1999/xlink"
	 x="0px" y="0px" viewBox="0 0 706 266" xml:space="preserve">
<g>
	<path fill-rule="evenodd" fill="#FFFFFF" d="M54.117,201.19c-2.344,0-4.591,0.412-6.673,1.167l14.283-14.259
		c-7.237-3.374-16.117-2.079-22.091,3.886c-3.47,3.465-5.362,7.908-5.676,12.439c-1.921-4.118-5.283-7.59-9.767-9.583
		c-7.719-3.431-16.475-1.463-22.019,4.276l20.757,9.225c-3.094-0.163-6.273,0.408-9.278,1.806
		C5.996,213.713,1.74,221.6,2.441,229.543l21.164-9.852c-2.346,2.341-4.125,5.31-5.046,8.738c-2.187,8.148,1.13,16.473,7.676,21.042
		l8.026-29.905c6.612,9.667,10.096,20.93,10.096,32.753V266h7.548v-13.682c0-13.876-4.256-27.08-12.316-38.282l32.901,0.001
		C69.763,206.543,62.567,201.19,54.117,201.19z M355.237,80.777v-8.932c0-1.233-1.002-2.233-2.237-2.233
		c-1.235,0-2.237,1-2.237,2.233v8.932c0,1.233,1.002,2.233,2.237,2.233C354.235,83.01,355.237,82.01,355.237,80.777z
		 M327.878,80.777v-8.932c0-1.233-1.001-2.233-2.236-2.233c-1.235,0-2.237,1-2.237,2.233v8.932c0,1.233,1.001,2.233,2.237,2.233
		C326.877,83.01,327.878,82.01,327.878,80.777z M379.167,80.777v-8.932c0-1.233-1.001-2.233-2.237-2.233
		c-1.235,0-2.237,1-2.237,2.233v8.932c0,1.233,1.001,2.233,2.237,2.233C378.165,83.01,379.167,82.01,379.167,80.777z
		 M321.961,80.777v-8.932c0-1.233-1.001-2.233-2.237-2.233c-1.235,0-2.237,1-2.237,2.233v8.932c0,1.233,1.001,2.233,2.237,2.233
		C320.959,83.01,321.961,82.01,321.961,80.777z M401.648,56.436l-26.449-7.803c0.344-1.571,0.526-3.202,0.526-4.875
		c0-11.443-8.485-20.906-19.517-22.462l-0.971-15.545c-0.113-1.243-1.002-2.234-2.237-2.234c-1.235,0-2.154,1.003-2.237,2.234
		l-0.972,15.545c-11.031,1.556-19.516,11.02-19.516,22.462c0,1.673,0.181,3.305,0.526,4.875l-26.511,7.821
		c-0.932,0.269-1.615,1.128-1.615,2.145c0,1.233,1.001,2.233,2.237,2.233h33.124c3.998,3.494,9.233,5.613,14.964,5.613
		s10.967-2.118,14.965-5.613h33.124c1.235,0,2.237-1,2.237-2.233C403.326,57.558,402.613,56.683,401.648,56.436z M365.879,39.709
		h-25.757c-1.235,0-2.236-1-2.236-2.233c0-0.343,0.077-0.669,0.216-0.959c2.717-5.525,8.366-9.298,14.899-9.298
		c6.546,0,12.207,3.791,14.898,9.293c0.14,0.292,0.219,0.619,0.219,0.964C368.116,38.709,367.115,39.709,365.879,39.709z
		 M385.085,80.777v-8.932c0-1.233-1.001-2.233-2.236-2.233c-1.235,0-2.237,1-2.237,2.233v8.932c0,1.233,1.001,2.233,2.237,2.233
		C384.083,83.01,385.085,82.01,385.085,80.777z M676.545,42.412c-0.074-0.078-0.141-0.147-0.21-0.216
		c-2.117-2.114-4.891-3.173-7.667-3.178c-2.775,0.005-5.549,1.064-7.666,3.178c-0.069,0.069-0.136,0.138-0.21,0.216l-0.041,0.043
		c-0.358,0.39-0.576,0.909-0.576,1.479c0,1.209,0.982,2.189,2.193,2.189c0.629,0,1.195-0.264,1.595-0.687
		c0.046-0.049,0.092-0.097,0.14-0.145c1.261-1.259,2.913-1.891,4.566-1.896c1.653,0.005,3.305,0.636,4.566,1.896
		c0.048,0.047,0.094,0.096,0.139,0.145c0.4,0.423,0.967,0.687,1.595,0.687c1.211,0,2.193-0.98,2.193-2.189
		c0-0.57-0.218-1.089-0.576-1.479L676.545,42.412z M666.464,49.493c-1.218,1.216-1.218,3.187,0,4.403
		c1.218,1.215,3.193,1.215,4.41,0c1.218-1.216,1.218-3.187,0-4.403C669.656,48.277,667.682,48.277,666.464,49.493z M655.675,40.349
		c0.394,0.379,0.931,0.612,1.522,0.612c0.611,0,1.163-0.249,1.561-0.651l0.176-0.179c2.689-2.684,6.211-4.028,9.735-4.033
		c3.524,0.005,7.047,1.349,9.735,4.033l0.177,0.179c0.398,0.402,0.95,0.651,1.561,0.651c0.591,0,1.127-0.233,1.521-0.612
		l0.057-0.058c0.38-0.393,0.614-0.929,0.614-1.519c0-0.581-0.227-1.109-0.596-1.501l-0.042-0.043l-0.19-0.193
		c-3.545-3.539-8.19-5.311-12.837-5.316c-4.646,0.005-9.291,1.776-12.836,5.316l-0.19,0.193l-0.042,0.043
		c-0.37,0.392-0.596,0.92-0.596,1.501c0,0.59,0.234,1.126,0.614,1.519L655.675,40.349z M642.017,86.528h53.303
		c1.436,0,2.6-1.162,2.6-2.595V2.595c0-1.434-1.164-2.595-2.6-2.595h-53.303c-1.436,0-2.6,1.162-2.6,2.595v81.337
		C639.417,85.366,640.581,86.528,642.017,86.528z M668.669,84.15c-1.817,0-3.291-1.471-3.291-3.285c0-1.815,1.474-3.285,3.291-3.285
		c1.817,0,3.291,1.471,3.291,3.285C671.96,82.679,670.486,84.15,668.669,84.15z M644.405,6.26c0-0.637,0.517-1.154,1.155-1.154
		h46.217c0.638,0,1.156,0.516,1.156,1.154v67.648c0,0.637-0.518,1.154-1.156,1.154H645.56c-0.638,0-1.155-0.517-1.155-1.154V6.26z
		 M506.073,65.734l28.368-28.32l-23.653-4.723l23.18-23.141h-15.171l-29.769,29.718l23.653,4.723l-14.194,14.17l-11.257-11.238
		v30.054h30.106L506.073,65.734z M34.013,80.533c2.291,0,4.148-1.854,4.148-4.141V47.231c2.934-0.685,4.978-3.314,4.978-6.451V12.62
		c0-3.659-2.83-6.625-6.495-6.625l-3.46,0c-1.833,0-3.318,1.483-3.318,3.313v67.085C29.865,78.679,31.722,80.533,34.013,80.533z
		 M8.296,40.072v36.32c0,2.287,1.857,4.141,4.148,4.141c2.291,0,4.148-1.854,4.148-4.141v-36.32
		c4.833-1.705,8.296-6.307,8.296-11.716V8.48c0-1.372-1.114-2.485-2.489-2.485c-1.374,0-2.489,1.112-2.489,2.485v16.564
		c0,1.372-1.114,2.485-2.489,2.485c-1.374,0-2.489-1.113-2.489-2.485V8.48c0-1.372-1.114-2.485-2.489-2.485
		c-1.375,0-2.489,1.112-2.489,2.485v16.564c0,1.372-1.114,2.485-2.489,2.485c-1.374,0-2.489-1.113-2.489-2.485V8.48
		c0-1.372-1.114-2.485-2.489-2.485C1.114,5.995,0,7.107,0,8.48v19.877C0,33.765,3.463,38.367,8.296,40.072z M48.115,44.67
		c0,4.574,3.714,8.282,8.296,8.282h2.49v22.612h-6.637c-1.375,0-2.489,1.112-2.489,2.484c0,1.372,1.114,2.485,2.489,2.485h18.251
		c1.375,0,2.489-1.112,2.489-2.485c0-1.372-1.114-2.484-2.489-2.484h-6.637V52.951h2.489c4.582,0,8.296-3.708,8.296-8.282V5.995
		H48.115V44.67z M53.093,10.964h16.593v13.689H53.093V10.964z M370.795,189.686c0-0.275-0.006-0.548-0.019-0.82h-7.003
		c0.008,0.165,0.011,0.33,0.011,0.497c0,5.947-4.828,10.767-10.785,10.767c-5.956,0-10.785-4.82-10.785-10.767
		c0-0.166,0.004-0.332,0.012-0.497h-7.003c-0.013,0.272-0.019,0.545-0.019,0.82c0,9.811,7.967,17.765,17.795,17.765
		S370.795,199.497,370.795,189.686z M343.733,212.431c0-1.124-0.913-2.036-2.039-2.036c-0.808,0-1.503,0.476-1.833,1.157
		l-24.193,51.852h14.617l13.383-50.462C343.715,212.744,343.733,212.59,343.733,212.431z M348.729,212.678
		c-0.833,0-1.533,0.571-1.727,1.343l-11.561,49.383h15.07l-0.001-48.948C350.51,213.474,349.713,212.678,348.729,212.678z
		 M364.307,210.395c-1.126,0-2.039,0.911-2.039,2.036c0,0.159,0.018,0.313,0.065,0.511l13.383,50.462h14.617l-24.193-51.852
		C365.809,210.871,365.114,210.395,364.307,210.395z M357.271,212.678c-0.984,0-1.781,0.796-1.781,1.778l-0.001,48.948h15.07
		l-11.561-49.383C358.804,213.249,358.105,212.678,357.271,212.678z M495.455,193.837h-9.499l-2.875-4.971h-9.579v13.253h17.163
		l5.943,10.276h-23.106v8.281h60.295l-13.869,23.98c-2.784-4.453-7.736-7.416-13.381-7.416c-7.09,0-13.115,4.671-15.068,11.1
		c-2.427,7.787-9.78,13.711-17.977,15.065h18.24c3.523-3.454,6.204-7.766,7.708-12.598c0.9-3.033,3.755-5.239,7.098-5.239
		c4.098,0,7.42,3.317,7.42,7.408c0,1.223-0.289,2.376-0.814,3.393l-4.069,7.036h9.579l29.501-51.011h-41.979L495.455,193.837z
		 M499.706,226.502h-8.195v8.18h8.195V226.502z M473.952,226.502v8.18h8.195v-8.18H473.952z M165.558,239.26l0.843,14.037
		c0.336,5.639,5.017,10.106,10.745,10.106c5.937,0,10.76-4.81,10.76-10.742v-14.235l-9.254-28.354L165.558,239.26z M202.433,238.365
		v14.297c0,5.932,4.814,10.742,10.76,10.742c5.727,0,10.401-4.467,10.736-10.106l0.843-14.037l-13.093-29.187L202.433,238.365z
		 M182.459,188.867c-13.499,0-19.258,10.932-18.228,28.194l0.734,12.144l11.907-26.551c0.39-0.872,1.291-1.421,2.246-1.371
		c0.968,0.051,1.795,0.689,2.092,1.604l7.825,23.953c1.685-8.409,4.635-14.278,4.635-22.508
		C193.671,198.763,191.174,188.867,182.459,188.867z M207.872,188.867c-8.716,0-11.205,9.896-11.205,15.466
		c0,8.23,2.949,14.099,4.627,22.508l7.826-23.953c0.297-0.915,1.132-1.554,2.099-1.604c0.96-0.051,1.857,0.499,2.247,1.371
		l11.907,26.551l0.726-12.144C227.137,199.799,221.371,188.867,207.872,188.867z M206.06,28.804l-27.318,27.271
		c-0.966,1.084-0.964,2.725,0.006,3.806l8.409,8.396c1.125,1.03,2.874,1.001,3.975-0.098l24.69-24.647h22.682V26.226h-26.216
		C209.856,26.226,207.653,27.211,206.06,28.804z M165.621,29.321c0.289,0.285,0.687,0.462,1.125,0.462
		c0.846,0,1.539-0.656,1.596-1.486V17.775h25.797v-5.769h-25.797V1.485c-0.058-0.83-0.75-1.486-1.596-1.486
		c-0.438,0-0.836,0.177-1.125,0.462l-13.324,13.301c-0.289,0.289-0.468,0.688-0.468,1.129c0,0.442,0.18,0.842,0.471,1.131
		L165.621,29.321z M178.882,80.41l6.129-6.119l-12.258-12.237l-6.128-6.118c-3.385-3.379-8.873-3.379-12.258,0
		c-3.385,3.379-3.385,8.857,0,12.237l18.386,18.355L178.882,80.41z M649.98,198.882c-0.337-0.336-0.801-0.543-1.314-0.543
		c-0.515,0-0.981,0.209-1.317,0.546l-15.475,15.449c-0.332,0.336-0.537,0.797-0.537,1.306c0,0.981,0.763,1.785,1.729,1.851h11.21
		v36.44h8.779l0-36.44h11.21c0.966-0.066,1.729-0.87,1.729-1.851c0-0.509-0.205-0.97-0.537-1.306L649.98,198.882z M705.464,214.334
		l-15.478-15.452c-0.336-0.336-0.801-0.543-1.314-0.543c-0.515,0-0.981,0.209-1.318,0.546l-15.475,15.449
		c-0.332,0.336-0.537,0.797-0.537,1.306c0,0.981,0.763,1.785,1.729,1.851h11.211v36.44h8.779l0.001-36.44h11.21
		c0.966-0.066,1.729-0.87,1.729-1.851C706.001,215.131,705.796,214.67,705.464,214.334z"/>
</g>
</svg>
